<?xml version="1.0" encoding="UTF-8"?>
<svg id="Layer_1" data-name="Layer 1" xmlns="http://www.w3.org/2000/svg" xmlns:xlink="http://www.w3.org/1999/xlink" viewBox="0 0 1400 800">
  <defs>
    <style>
      .cls-1 {
        fill: #eee;
      }

      .cls-1, .cls-2, .cls-3, .cls-4 {
        stroke-width: 0px;
      }

      .cls-5 {
        clip-path: url(#clippath);
      }

      .cls-2 {
        fill: none;
      }

      .cls-6 {
        mask: url(#mask);
      }

      .cls-3 {
        fill: #000;
      }

      .cls-4 {
        fill: #fff;
      }
    </style>
    <clipPath id="clippath">
      <rect class="cls-2" x="83.31" y="261.35" width="1239.36" height="274.63"/>
    </clipPath>
    <mask id="mask" x="83.31" y="261.35" width="1239.38" height="274.65" maskUnits="userSpaceOnUse">
      <g id="mask0_2156_7203" data-name="mask0 2156 7203">
        <path class="cls-4" d="M1322.67,261.35H83.31v274.63h1239.36v-274.63Z"/>
      </g>
    </mask>
  </defs>
  <rect class="cls-1" width="1400" height="800"/>
  <g class="cls-5">
    <g class="cls-6">
      <g>
        <path class="cls-3" d="M483.37,497.36v-139.54c0-11.21-6.23-16.62-18.26-14.53l-58.12,10.79v12.88c18.68-.82,26.56,3.74,26.56,22.83v63.55c0,30.73-14.95,52.74-41.1,52.74s-39.86-22.01-39.86-52.74v-95.52c0-11.21-6.23-16.62-18.26-14.53l-58.12,10.79v12.88c18.68-.82,26.56,3.74,26.56,22.83v73.09c0,58.14,30.3,73.09,61.03,73.09,33.63,0,50.65-18.27,59.79-29.48,2.07-2.49,3.74-4.16,6.23-4.16,2.91,0,4.98,2.49,5.81,7.05,2.07,12.04,11.21,26.57,34.88,26.57,12.88,0,26.56-4.16,31.96-14.95v-7.48c-12.04,3.74-19.11-2.07-19.11-16.2l.02.02Z"/>
        <path class="cls-3" d="M727.24,497.36v-84.71c0-56.07-30.72-71-61.44-71-32.79,0-55.51,19.99-64.23,30.38h-5.19s.11-10.57.11-15.85c0-9.55-6.23-14.95-18.26-12.88l-58.12,10.79v12.88c18.68-1.67,26.56,3.32,26.56,22.43v104.65c0,19.11-7.05,24.92-26.56,26.57v12.88h102.54v-12.88c-19.11-1.67-26.16-7.48-26.16-26.57v-71.85c0-28.66,14.95-50.66,41.1-50.66s39.86,22.01,39.86,50.66v75.16c0,26.57,15.77,38.63,37.37,38.63,12.46,0,26.16-4.16,31.54-14.95v-7.48c-12.03,3.74-19.1-2.07-19.1-16.2h-.02Z"/>
        <path class="cls-3" d="M963.85,497.36v-84.71c0-56.07-30.72-71-61.44-71-32.79,0-55.5,19.99-64.23,30.38h-5.19s.11-92.06.11-97.35c0-9.55-6.23-14.95-18.27-12.88l-58.12,10.79v12.88c18.68-1.67,26.56,3.32,26.56,22.43v186.15c0,19.11-7.05,24.92-26.56,26.57v12.88h102.54v-12.88c-19.11-1.67-26.15-7.48-26.15-26.57v-71.85c0-28.66,14.95-50.66,41.1-50.66s39.86,22.01,39.86,50.66v75.16c0,26.57,15.77,38.63,37.37,38.63,12.46,0,26.15-4.16,31.54-14.95v-7.48c-12.03,3.74-19.11-2.07-19.11-16.2h-.01Z"/>
        <path class="cls-3" d="M1169.35,497.36v-79.32c0-57.72-22-75.58-70.98-75.58-45.66,0-90.91,14.53-90.91,46.51,0,13.29,7.9,23.67,24.5,23.67,43.17,0,7.05-55.23,54.38-55.23,23.67,0,33.21,15.37,33.21,45.26v6.65c0,10.79-3.3,13.71-14.94,15.37-80.94,11.64-109.18,31.97-109.18,65.62s26.16,45.68,54.38,45.68c29.91,0,51.48-15.37,63.11-29.9,3.73-4.56,7.05-3.74,7.47,1.25,1.68,14.95,12.46,28.66,35.7,28.66,12.88,0,24.92-4.16,30.3-14.95v-7.48c-12.04,4.16-17.02-2.07-17.02-16.2h-.02ZM1119.53,451.68v10.79c0,26.17-18.68,45.68-44,45.68-20.35,0-29.05-12.88-29.05-27.82,0-16.2,10.38-36.96,56.45-41.12,8.85-.93,13.63-2.49,15.68-3.33.6-.25,1.23.21,1.21.84-.08,2.91-.28,9.72-.28,14.95h0Z"/>
        <path class="cls-3" d="M1322.67,346.2h-52.49l-.23-11.21.41-26.99c0-4.56-2.9-7.48-7.47-7.48h-5.8c-4.16,0-6.65,1.25-9.14,5.41-13.28,22.43-28.65,36.96-58.12,45.26v11.63h19.11c7.89,0,11.2,2.49,11.2,15.37v101.33c0,37.78,21.58,56.07,55.63,56.07,19.11,0,33.63-5.81,42.35-13.7,3.74-3.32,2.91-8.3-2.49-14.13-6.65,5.41-14.53,7.48-22,7.48-20.33,0-23.66-15.37-23.66-39.03v-97.17l-.15-13.71h52.87v-19.11l-.02-.02Z"/>
        <path class="cls-3" d="M190.78,415.56c-19.93-6.23-35.7-15.37-35.7-34.05,0-14.95,11.42-25.09,31.35-25.09l5.23.3c36.12,4.04,51.61,49.03,51.61,49.03h5.65v-45.82c-14.12-10.39-37.37-17.44-62.28-17.44-14.09,0-27.17,2.23-38.4,6.48-.14,21.04-16.4,38.24-37.03,39.91-.61,3.21-.95,6.58-.95,10.09,0,36.13,31.96,52.33,65.59,62.7,26.16,7.9,43.17,13.71,43.17,31.97,0,13.29-7.89,27.41-35.7,27.41-24.49,0-41.93-11.64-51.89-41.52-2.07-6.23-5.81-9.14-11.63-9.14-15.77,0-14.53,25.32-4.16,46.93,14.12,10.79,37.37,18.69,64.77,18.69,45.24,0,85.1-19.94,85.1-58.56,0-41.52-44.84-52.74-74.72-61.88h-.02Z"/>
        <path class="cls-3" d="M106.2,369.18c12.64,0,22.89-10.25,22.89-22.9s-10.25-22.9-22.89-22.9-22.89,10.25-22.89,22.9,10.25,22.9,22.89,22.9Z"/>
      </g>
    </g>
  </g>
</svg>